<mxfile host="app.diagrams.net" modified="2022-02-23T02:56:17.295Z" agent="5.0 (Windows NT 10.0; Win64; x64) AppleWebKit/537.36 (KHTML, like Gecko) Chrome/98.0.4758.102 Safari/537.36" etag="qw-Ef60aGs6lF0k1KWDl" version="16.6.2" type="github">
  <diagram id="sQ8EXhfYu_Z4RW1TYD9f" name="Page-1">
    <mxGraphModel dx="1422" dy="762" grid="1" gridSize="10" guides="1" tooltips="1" connect="0" arrows="1" fold="1" page="1" pageScale="1" pageWidth="827" pageHeight="1169" math="0" shadow="0">
      <root>
        <mxCell id="0" />
        <mxCell id="1" parent="0" />
        <mxCell id="wOnGFkAYj0Utu0_wV-MN-16" value="구현" style="swimlane;fillColor=#dae8fc;strokeColor=#6c8ebf;" parent="1" vertex="1">
          <mxGeometry x="270" y="50" width="339" height="660" as="geometry" />
        </mxCell>
        <mxCell id="uF-B9j87NHDLKM0phF6b-2" value="월드맵 전환 페이더로 가리기" style="rounded=1;whiteSpace=wrap;html=1;" parent="wOnGFkAYj0Utu0_wV-MN-16" vertex="1">
          <mxGeometry x="10" y="110" width="159" height="60" as="geometry" />
        </mxCell>
        <mxCell id="kUrRIZUl9LaLp0kbs6zG-1" value="월드맵 상호작용 스테이트 만들기" style="rounded=1;whiteSpace=wrap;html=1;" parent="wOnGFkAYj0Utu0_wV-MN-16" vertex="1">
          <mxGeometry x="10" y="40" width="159" height="60" as="geometry" />
        </mxCell>
        <mxCell id="FVeLGarL4Bx6jjXFqlQJ-1" value="월드맵 랜드마크 클래스와 랜드마크 데이터 클래스 분리" style="rounded=1;whiteSpace=wrap;html=1;" vertex="1" parent="wOnGFkAYj0Utu0_wV-MN-16">
          <mxGeometry x="10" y="180" width="159" height="60" as="geometry" />
        </mxCell>
        <mxCell id="FVeLGarL4Bx6jjXFqlQJ-14" value="랜드마크 그림자 제거" style="rounded=1;whiteSpace=wrap;html=1;" vertex="1" parent="wOnGFkAYj0Utu0_wV-MN-16">
          <mxGeometry x="10" y="250" width="159" height="60" as="geometry" />
        </mxCell>
        <mxCell id="wOnGFkAYj0Utu0_wV-MN-17" value="분석 | 논의" style="swimlane;strokeColor=#82b366;fillColor=#D5E8D4;" parent="1" vertex="1">
          <mxGeometry x="49" y="50" width="211" height="270" as="geometry" />
        </mxCell>
        <mxCell id="wOnGFkAYj0Utu0_wV-MN-18" value="고려" style="swimlane;fillColor=#e1d5e7;strokeColor=#9673a6;" parent="1" vertex="1">
          <mxGeometry x="621" y="51" width="220" height="380" as="geometry" />
        </mxCell>
        <mxCell id="MTrl5ynQiznJmTlUDSWs-4" value="대기 | 요청" style="swimlane;strokeColor=#d79b00;fillColor=#ffe6cc;" parent="1" vertex="1">
          <mxGeometry x="49" y="330" width="210" height="380" as="geometry" />
        </mxCell>
        <mxCell id="vTnbH4VRIqhErS-_WKO5-1" value="World 데이터테이블 추가&lt;br&gt;[기획 진권님]" style="rounded=1;whiteSpace=wrap;html=1;" parent="MTrl5ynQiznJmTlUDSWs-4" vertex="1">
          <mxGeometry x="25.5" y="30" width="159" height="60" as="geometry" />
        </mxCell>
        <mxCell id="vTnbH4VRIqhErS-_WKO5-2" value="Basepath_BG_File 에 월드맵 부분 추가&lt;br&gt;[기획 진권님]" style="rounded=1;whiteSpace=wrap;html=1;" parent="MTrl5ynQiznJmTlUDSWs-4" vertex="1">
          <mxGeometry x="26" y="101" width="159" height="60" as="geometry" />
        </mxCell>
        <mxCell id="9A0mLHsorhuxDrabdEOj-9" value="에러 | 수정" style="swimlane;fillColor=#f8cecc;strokeColor=#b85450;startSize=23;" parent="1" vertex="1">
          <mxGeometry x="620" y="440" width="500" height="270" as="geometry" />
        </mxCell>
        <mxCell id="hDPYIisuoytdxOGGVnbc-3" value="    폐기 | 완료" style="swimlane;strokeColor=#666666;fillColor=#f5f5f5;fontColor=#333333;align=left;" parent="1" vertex="1">
          <mxGeometry x="1130" y="50" width="340" height="940" as="geometry">
            <mxRectangle x="1130" y="50" width="90" height="23" as="alternateBounds" />
          </mxGeometry>
        </mxCell>
        <mxCell id="9BVSQYlsmqHMlIktp3W5-5" value="월드맵 씬 입장&lt;br&gt;임시" style="rounded=1;whiteSpace=wrap;html=1;" parent="hDPYIisuoytdxOGGVnbc-3" vertex="1">
          <mxGeometry x="10" y="30" width="159" height="60" as="geometry" />
        </mxCell>
        <mxCell id="kJ8uscEwteNc1p09hnLr-1" value="카메라 월드 위치로 전환&lt;br&gt;임시" style="rounded=1;whiteSpace=wrap;html=1;" parent="hDPYIisuoytdxOGGVnbc-3" vertex="1">
          <mxGeometry x="10" y="100" width="159" height="60" as="geometry" />
        </mxCell>
        <mxCell id="kJ8uscEwteNc1p09hnLr-4" value="카메라 fov 조정&lt;br&gt;임시" style="rounded=1;whiteSpace=wrap;html=1;" parent="hDPYIisuoytdxOGGVnbc-3" vertex="1">
          <mxGeometry x="10" y="170" width="159" height="60" as="geometry" />
        </mxCell>
        <mxCell id="kJ8uscEwteNc1p09hnLr-2" value="캐릭터 생성 및 빙의&lt;br&gt;임시" style="rounded=1;whiteSpace=wrap;html=1;" parent="hDPYIisuoytdxOGGVnbc-3" vertex="1">
          <mxGeometry x="10" y="240" width="159" height="60" as="geometry" />
        </mxCell>
        <mxCell id="yRjn5Evf7NWM66I1Z_kQ-1" value="카메라 캐릭터 추적" style="rounded=1;whiteSpace=wrap;html=1;" parent="hDPYIisuoytdxOGGVnbc-3" vertex="1">
          <mxGeometry x="10" y="310" width="159" height="60" as="geometry" />
        </mxCell>
        <mxCell id="kJ8uscEwteNc1p09hnLr-3" value="월드맵 퇴장&lt;br&gt;임시" style="rounded=1;whiteSpace=wrap;html=1;" parent="hDPYIisuoytdxOGGVnbc-3" vertex="1">
          <mxGeometry x="10" y="380" width="159" height="60" as="geometry" />
        </mxCell>
        <mxCell id="cxw23tFFmiZz1Zq3z1TT-1" value="조이스틱 안나오는 문제 수정" style="rounded=1;whiteSpace=wrap;html=1;" parent="hDPYIisuoytdxOGGVnbc-3" vertex="1">
          <mxGeometry x="10" y="450" width="159" height="60" as="geometry" />
        </mxCell>
        <mxCell id="uF-B9j87NHDLKM0phF6b-1" value="월드맵 캐릭터 클래스 분리" style="rounded=1;whiteSpace=wrap;html=1;" parent="hDPYIisuoytdxOGGVnbc-3" vertex="1">
          <mxGeometry x="10" y="520" width="159" height="60" as="geometry" />
        </mxCell>
        <mxCell id="ntnGT9J50WzDBnbT4Uqs-1" value="캐릭터 스테이트머신 만들기" style="rounded=1;whiteSpace=wrap;html=1;" parent="hDPYIisuoytdxOGGVnbc-3" vertex="1">
          <mxGeometry x="10" y="590" width="159" height="60" as="geometry" />
        </mxCell>
        <mxCell id="kUrRIZUl9LaLp0kbs6zG-4" value="랜드마크 BP 만들기" style="rounded=1;whiteSpace=wrap;html=1;" parent="hDPYIisuoytdxOGGVnbc-3" vertex="1">
          <mxGeometry x="10" y="660" width="159" height="60" as="geometry" />
        </mxCell>
        <mxCell id="kUrRIZUl9LaLp0kbs6zG-2" value="랜드마크 UI 표기" style="rounded=1;whiteSpace=wrap;html=1;" parent="hDPYIisuoytdxOGGVnbc-3" vertex="1">
          <mxGeometry x="10" y="730" width="159" height="60" as="geometry" />
        </mxCell>
        <mxCell id="kUrRIZUl9LaLp0kbs6zG-5" value="카메라 볼륨 받기" style="rounded=1;whiteSpace=wrap;html=1;" parent="hDPYIisuoytdxOGGVnbc-3" vertex="1">
          <mxGeometry x="10" y="800" width="159" height="60" as="geometry" />
        </mxCell>
        <mxCell id="FVeLGarL4Bx6jjXFqlQJ-10" value="랜드마크 UI 충돌 제거" style="rounded=1;whiteSpace=wrap;html=1;" vertex="1" parent="hDPYIisuoytdxOGGVnbc-3">
          <mxGeometry x="10" y="870" width="159" height="60" as="geometry" />
        </mxCell>
        <mxCell id="6kkVd8V_ymKgZ0_L0vxy-3" value="My Comment" style="swimlane;" parent="1" vertex="1">
          <mxGeometry x="49" y="730" width="1071" height="260" as="geometry">
            <mxRectangle x="49" y="720" width="100" height="23" as="alternateBounds" />
          </mxGeometry>
        </mxCell>
        <mxCell id="KfCYHrgsOKh0RXw9eGPa-2" value="&lt;h1&gt;Memo&lt;/h1&gt;&lt;p&gt;&lt;br&gt;&lt;/p&gt;" style="text;html=1;strokeColor=none;fillColor=none;spacing=5;spacingTop=-20;whiteSpace=wrap;overflow=hidden;rounded=0;align=left;" parent="6kkVd8V_ymKgZ0_L0vxy-3" vertex="1">
          <mxGeometry x="1" y="20" width="1070" height="240" as="geometry" />
        </mxCell>
        <mxCell id="oumLD8d3DvaTa1NXrWpt-27" value="Tool" style="swimlane;horizontal=0;" parent="1" vertex="1">
          <mxGeometry x="850" y="50" width="270" height="380" as="geometry" />
        </mxCell>
        <mxCell id="oumLD8d3DvaTa1NXrWpt-25" value="" style="rounded=1;whiteSpace=wrap;html=1;" parent="oumLD8d3DvaTa1NXrWpt-27" vertex="1">
          <mxGeometry x="31" y="10" width="159" height="60" as="geometry" />
        </mxCell>
        <mxCell id="oumLD8d3DvaTa1NXrWpt-31" value="" style="group" parent="oumLD8d3DvaTa1NXrWpt-27" vertex="1" connectable="0">
          <mxGeometry x="31" y="90" width="220" height="80" as="geometry" />
        </mxCell>
        <mxCell id="oumLD8d3DvaTa1NXrWpt-28" value="" style="rounded=1;whiteSpace=wrap;html=1;" parent="oumLD8d3DvaTa1NXrWpt-31" vertex="1">
          <mxGeometry width="159" height="60" as="geometry" />
        </mxCell>
        <mxCell id="oumLD8d3DvaTa1NXrWpt-29" value="" style="rounded=0;whiteSpace=wrap;html=1;" parent="oumLD8d3DvaTa1NXrWpt-31" vertex="1">
          <mxGeometry x="100" y="60" width="120" height="20" as="geometry" />
        </mxCell>
        <mxCell id="oumLD8d3DvaTa1NXrWpt-30" value="" style="rounded=0;whiteSpace=wrap;html=1;" parent="oumLD8d3DvaTa1NXrWpt-31" vertex="1">
          <mxGeometry x="100" y="40" width="120" height="20" as="geometry" />
        </mxCell>
        <mxCell id="oumLD8d3DvaTa1NXrWpt-32" value="" style="swimlane;fillColor=#dae8fc;strokeColor=#6c8ebf;" parent="oumLD8d3DvaTa1NXrWpt-27" vertex="1">
          <mxGeometry x="31.5" y="180" width="219.5" height="60" as="geometry" />
        </mxCell>
        <mxCell id="oumLD8d3DvaTa1NXrWpt-34" value="" style="swimlane;" parent="oumLD8d3DvaTa1NXrWpt-27" vertex="1">
          <mxGeometry x="31" y="260" width="219" height="50" as="geometry" />
        </mxCell>
        <mxCell id="Fb32EvJjGHJRLybvlaYY-3" value="Text" style="text;html=1;align=left;verticalAlign=middle;resizable=0;points=[];autosize=1;strokeColor=none;" parent="oumLD8d3DvaTa1NXrWpt-27" vertex="1">
          <mxGeometry x="220" y="20" width="40" height="20" as="geometry" />
        </mxCell>
        <mxCell id="FVeLGarL4Bx6jjXFqlQJ-2" value="생성부&lt;span style=&quot;color: rgba(0 , 0 , 0 , 0) ; font-family: monospace ; font-size: 0px&quot;&gt;%3CmxGraphModel%3E%3Croot%3E%3CmxCell%20id%3D%220%22%2F%3E%3CmxCell%20id%3D%221%22%20parent%3D%220%22%2F%3E%3CmxCell%20id%3D%222%22%20value%3D%22%EC%9B%94%EB%93%9C%EB%A7%B5%20%EC%A0%84%ED%99%98%20%ED%8E%98%EC%9D%B4%EB%8D%94%EB%A1%9C%20%EA%B0%80%EB%A6%AC%EA%B8%B0%22%20style%3D%22rounded%3D1%3BwhiteSpace%3Dwrap%3Bhtml%3D1%3B%22%20vertex%3D%221%22%20parent%3D%221%22%3E%3CmxGeometry%20x%3D%22280%22%20y%3D%22160%22%20width%3D%22159%22%20height%3D%2260%22%20as%3D%22geometry%22%2F%3E%3C%2FmxCell%3E%3C%2Froot%3E%3C%2FmxGraphModel%3E부부&lt;/span&gt;" style="rounded=0;whiteSpace=wrap;html=1;" vertex="1" parent="1">
          <mxGeometry x="294" y="1030" width="120" height="60" as="geometry" />
        </mxCell>
        <mxCell id="FVeLGarL4Bx6jjXFqlQJ-3" value="데이터부" style="rounded=0;whiteSpace=wrap;html=1;" vertex="1" parent="1">
          <mxGeometry x="480" y="1030" width="120" height="60" as="geometry" />
        </mxCell>
        <mxCell id="FVeLGarL4Bx6jjXFqlQJ-4" value="몬스터 플레이어 방향 회전" style="rounded=1;whiteSpace=wrap;html=1;" vertex="1" parent="1">
          <mxGeometry x="294" y="1390" width="120" height="60" as="geometry" />
        </mxCell>
        <mxCell id="FVeLGarL4Bx6jjXFqlQJ-5" value="몬스터 시간 지나면 재배치" style="rounded=1;whiteSpace=wrap;html=1;" vertex="1" parent="1">
          <mxGeometry x="294" y="1109" width="120" height="60" as="geometry" />
        </mxCell>
        <mxCell id="FVeLGarL4Bx6jjXFqlQJ-6" value="랜드마크 출현 조건 검사" style="rounded=1;whiteSpace=wrap;html=1;" vertex="1" parent="1">
          <mxGeometry x="294" y="1100" width="120" height="60" as="geometry" />
        </mxCell>
        <mxCell id="FVeLGarL4Bx6jjXFqlQJ-7" value="터치시 확대 축소 이펙트" style="rounded=1;whiteSpace=wrap;html=1;" vertex="1" parent="1">
          <mxGeometry x="294" y="1180" width="120" height="60" as="geometry" />
        </mxCell>
        <mxCell id="FVeLGarL4Bx6jjXFqlQJ-8" value="퇴장시 캐릭터 움직임 처리" style="rounded=1;whiteSpace=wrap;html=1;" vertex="1" parent="1">
          <mxGeometry x="294" y="1250" width="120" height="60" as="geometry" />
        </mxCell>
        <mxCell id="FVeLGarL4Bx6jjXFqlQJ-9" value="상호작용 버튼 출현 여부 결정" style="rounded=1;whiteSpace=wrap;html=1;" vertex="1" parent="1">
          <mxGeometry x="294" y="1320" width="120" height="60" as="geometry" />
        </mxCell>
        <mxCell id="FVeLGarL4Bx6jjXFqlQJ-11" value="상호작용 버튼 처리" style="rounded=1;whiteSpace=wrap;html=1;" vertex="1" parent="1">
          <mxGeometry x="480" y="1100" width="120" height="60" as="geometry" />
        </mxCell>
        <mxCell id="FVeLGarL4Bx6jjXFqlQJ-12" value="퀘스트 아이콘 출현 여부 결정" style="rounded=1;whiteSpace=wrap;html=1;" vertex="1" parent="1">
          <mxGeometry x="480" y="1180" width="120" height="60" as="geometry" />
        </mxCell>
        <mxCell id="FVeLGarL4Bx6jjXFqlQJ-13" value="랜드마크 이름 출력" style="rounded=1;whiteSpace=wrap;html=1;" vertex="1" parent="1">
          <mxGeometry x="480" y="1250" width="120" height="60" as="geometry" />
        </mxCell>
      </root>
    </mxGraphModel>
  </diagram>
</mxfile>
